<?xml version="1.0" encoding="utf-8"?>
<!-- Generator: Adobe Illustrator 18.0.0, SVG Export Plug-In . SVG Version: 6.00 Build 0)  -->
<!DOCTYPE svg PUBLIC "-//W3C//DTD SVG 1.1//EN" "http://www.w3.org/Graphics/SVG/1.1/DTD/svg11.dtd">
<svg version="1.1" id="Layer_1" xmlns="http://www.w3.org/2000/svg" xmlns:xlink="http://www.w3.org/1999/xlink" x="0px" y="0px"
	 viewBox="0 0 949.9 792" enable-background="new 0 0 949.9 792" xml:space="preserve">
<g>
	<path fill="#2A2929" d="M519.4,627.5c-11.1-12.9-19.5-27.7-28.2-42.2c-4-6.6-8.1-10.8-16.4-9.9c-5.2,0.5-10.3-2.1-15.9-1.1
		c0.1,6.2,2.6,11.4,3.6,16.9c2.3,12.6,2.1,24.6-7.8,34.4c-10.3,0.4-20.5,2.7-30.8,1.8c-4.9-4.2-6.5-10.5-9.8-15.8
		c-10.9-17.4-21.6-34.9-32.2-52.5c-2.6-4.4-5.8-7.5-10.5-9.6c-15.3-6.7-30.2-14.4-44-24c-10.2-7.1-20.3-14.5-29.6-22.6
		c-21-18.4-39.6-39.3-55.6-62c-18.4-26-34.2-54-42.4-84.9c-6.8-25.8-10.4-52.4-7.7-79.3c1-10.1,1.3-20.2,3.1-30.3
		c2-11.5,6.8-22.2,8.6-33.7c0.9-6,3.8-11.7,4.7-17.6c2.6-19.2-1.8-36.5-15.5-50.8c-0.7-0.7-1.2-1.6-1.8-2.3
		c8.3-4.9,14.3-12.7,21.7-18.6c10-8,10.5-11.9,2.6-21.8c-1.2-1.5-2.7-2.9-4-4.4c-5.8-6.1-10.3-13-11.6-21.5
		c-0.9-5.6-2.8-10.8-4.8-16c0,0-0.1,0.2-0.1,0.2c1.2-0.4,2.7-0.3,3.5-1.7c3.8-4.5,8.8-7.1,13.8-10.1c7.7-4.7,15.2-9.4,23.8-12.5
		C277.3,20.7,315.6,25,351,50.7c22.2,16.1,35.5,39,46,63.7c5.3,12.4,9.5,25.2,14.5,37.8c6,14.9,15.3,26.5,30.5,33.6
		c37.6,17.5,72.4,39.7,104.9,65.4c10.4,8.2,20.4,17,30.3,25.8c10.7,9.5,21.2,19.3,31.3,29.3c15.2,15.1,33.5,25.8,51,37.8
		c15.9,10.9,31.3,22.3,45.6,35.1c16,14.3,29,31,38.6,50.2c4.6,9.3,11.3,15.8,20.4,20.7c33.5,17.8,66.9,35.8,100,54.2
		c17,9.5,34.6,18.3,47.9,33.1c1.8,2,3.8,3.9,4.9,6.2c3.3,7-0.6,11.8-8.4,11.4c-14.3-0.8-28.1-4.7-41.9-7.8
		c-21.5-4.9-42.9-10-64.2-15.5c-22.8-5.9-45.8-11-68.8-16.1c-11.5-2.6-22.2-8.5-34.4-8.1c-60.6-18.6-123-30.6-184.1-47.6
		c-43.3-12-84.6-28.1-121.1-54.9c-22.3-16.3-41.4-35.6-55.1-59.8c-9.9-17.4-16.3-35.8-14.1-56.2c2.2-19.9,12.4-35,29.6-44.8
		c21.4-12.2,44.7-14.5,68.7-11.6c11.5,1.4,22.9,4,34,6.7c1.3-1.3,0.2-2.1-0.3-2.4c-28.5-14.2-58.3-20.7-89.9-13.2
		c-44.7,10.6-67.5,48.7-56.5,93.4c6.9,28.3,22.3,51.8,42.1,72.6c30.8,32.2,68.5,53.6,109.3,70c30.7,12.3,62.8,19.6,94.7,27.7
		c59.2,15,118.5,29.4,177.8,43.9c17.9,4.4,35.9,8.3,53.9,12.3c3.3,0.7,6.5,1.8,9.2,3.7c27.3,19.8,54.7,39.6,81.9,59.5
		c12.8,9.4,25.6,18.7,38.2,28.4c8.9,6.9,8.6,8.8-1.5,13.9c-20,10-41.2,11.9-63.1,9.8c-15.8-1.5-31.1-4.8-45.9-11.1
		c-11.4-4.8-21.8-11.2-32-17.8c-26.6-17-52.9-34.4-79.4-51.7c-7.6-5-15.1-10.3-22.9-15c-15.7-9.5-32.6-11.4-50.3-6.8
		c-8.3,2.1-16.8,4.1-24.9,6.8c-10.7,3.5-21.7,5.1-32.6,7.6c-10.7,2.5-10.4,2.6-8.1,13c3.1,14.2,1.9,27.7-8,39.3
		C539,624.8,529.5,628.2,519.4,627.5z M282.1,82.2c0.8-7.2-4.4-13.9-11.7-14.7c-7.6-0.9-14,3.8-15,11.2c-1.1,7.7,4.4,14.6,12.1,15.2
		C275,94.5,281.2,89.5,282.1,82.2z"/>
	<path fill="#A12C2E" d="M195.2,59.6c1.9,5.2,3.9,10.4,4.8,16c1.3,8.5,5.7,15.4,11.6,21.5c1.4,1.4,2.8,2.8,4,4.4
		c7.9,9.9,7.4,13.8-2.6,21.8c-7.4,6-13.4,13.7-21.7,18.6c-9.2-4.8-18.8-7.3-29.2-8.9c-8-1.2-16-3.1-24.3-3.5
		c-36.9-1.7-72.3,4.6-106.4,18.8c-2.2,0.9-4.5,2.3-6.4,0.3c-2.4-2.6,0-4.5,1.3-6.9c10.5-19.1,25.7-34.1,43-46.4
		c23.4-16.7,50.5-25.2,78.8-29.5c12.1-1.8,24.4-2.9,36.6-3.8C188.5,61.7,191.6,59.9,195.2,59.6z M57.7,126.8
		c48.6-21.7,99.2-24.8,151-16.9C155.8,91.3,105.5,97.5,57.7,126.8z"/>
	<path fill="#A12C2E" d="M519.4,627.5c10.1,0.7,19.6-2.7,29.4-4.1c-7.1,17.2-17.2,32.8-25.7,49.2c-8.9,17.1-18.2,33.9-27.2,50.9
		c-3.5,6.6-1.6,9.9,5.9,10.1c7.7,0.3,15.3-0.2,23-0.1c14.2,0.2,20.8,5.1,25.6,18.8c-7,2.5-155.5,3.1-166.6,0.6
		c2.8-11.6,11.7-18.9,24.2-19.3c11.3-0.3,22.7-0.3,34,0.1c14.2,0.5,23.8-5.2,30.4-18.1C487.6,686,503.7,656.8,519.4,627.5z"/>
	<path fill="#A12C2E" d="M424,627.4c10.4,1,20.6-1.4,30.8-1.8c-3.2,7.4-8.6,13.4-13.2,19.9c-22,31-44.2,61.8-66.3,92.7
		c-1.9,2.7-4.5,5.3-5.4,8.3c-2.1,6.5-6.1,8.1-12.7,8c-27-0.4-54-0.2-81-0.2c-1.3,0-2.7,0.1-4,0c-4.8-0.4-5.5-1.7-3.6-6.4
		c3.7-9,11.1-12.8,20.1-14c4.9-0.6,10-0.3,15-0.3c10,0,20,0.4,30-0.1c10.1-0.5,18.5-3.8,24.9-13.2c21-31.1,43-61.5,64.6-92.2
		C423.3,627.7,423.7,627.6,424,627.4z"/>
	<path fill="#A12C2E" d="M198.7,58c-0.8,1.4-2.3,1.3-3.5,1.7C195.5,57.5,197.1,57.7,198.7,58z"/>
</g>
</svg>
